<svg width="22" height="23" viewBox="0 0 22 23" fill="none" xmlns="http://www.w3.org/2000/svg">
<g id="vuesax/bold/tick-circle">
<g id="tick-circle">
<path id="Vector" d="M11.0002 2.54443C5.94933 2.54443 1.8335 6.66027 1.8335 11.7111C1.8335 16.7619 5.94933 20.8778 11.0002 20.8778C16.051 20.8778 20.1668 16.7619 20.1668 11.7111C20.1668 6.66027 16.051 2.54443 11.0002 2.54443ZM15.3818 9.60277L10.1843 14.8003C10.056 14.9286 9.88183 15.0019 9.6985 15.0019C9.51516 15.0019 9.341 14.9286 9.21266 14.8003L6.6185 12.2061C6.35266 11.9403 6.35266 11.5003 6.6185 11.2344C6.88433 10.9686 7.32433 10.9686 7.59016 11.2344L9.6985 13.3428L14.4102 8.6311C14.676 8.36527 15.116 8.36527 15.3818 8.6311C15.6477 8.89693 15.6477 9.32777 15.3818 9.60277Z" fill="#4356FF"/>
</g>
</g>
</svg>
