<svg width="24" height="24" viewBox="0 0 24 24" fill="none" xmlns="http://www.w3.org/2000/svg">
<g id="vuesax/linear/book">
<g id="book">
<path id="Vector" d="M22.001 16.7399V4.66994C22.001 3.46994 21.021 2.57994 19.831 2.67994H19.771C17.671 2.85994 14.481 3.92994 12.701 5.04994L12.531 5.15994C12.241 5.33994 11.761 5.33994 11.471 5.15994L11.221 5.00994C9.44098 3.89994 6.26098 2.83994 4.16098 2.66994C2.97098 2.56994 2.00098 3.46994 2.00098 4.65994V16.7399C2.00098 17.6999 2.78098 18.5999 3.74098 18.7199L4.03098 18.7599C6.20098 19.0499 9.55098 20.1499 11.471 21.1999L11.511 21.2199C11.781 21.3699 12.211 21.3699 12.471 21.2199C14.391 20.1599 17.751 19.0499 19.931 18.7599L20.261 18.7199C21.221 18.5999 22.001 17.6999 22.001 16.7399Z" stroke="#2C2C2C" stroke-width="1.83236" stroke-linecap="round" stroke-linejoin="round"/>
<path id="Vector_2" d="M12 5.48999V20.49" stroke="#2C2C2C" stroke-width="1.83236" stroke-linecap="round" stroke-linejoin="round"/>
<path id="Vector_3" d="M7.75 8.49011H5.5" stroke="#2C2C2C" stroke-width="1.83236" stroke-linecap="round" stroke-linejoin="round"/>
<path id="Vector_4" d="M8.5 11.49H5.5" stroke="#2C2C2C" stroke-width="1.83236" stroke-linecap="round" stroke-linejoin="round"/>
</g>
</g>
</svg>
