<svg width="25" height="24" viewBox="0 0 25 24" fill="none" xmlns="http://www.w3.org/2000/svg">
<g id="vuesax/linear/medal-star">
<g id="medal-star">
<path id="Vector" d="M19.6 9C19.6 10.45 19.17 11.78 18.43 12.89C17.35 14.49 15.64 15.62 13.65 15.91C13.31 15.97 12.96 16 12.6 16C12.24 16 11.89 15.97 11.55 15.91C9.55998 15.62 7.84998 14.49 6.76998 12.89C6.02998 11.78 5.59998 10.45 5.59998 9C5.59998 5.13 8.72998 2 12.6 2C16.47 2 19.6 5.13 19.6 9Z" stroke="#292D32" stroke-width="1.5" stroke-linecap="round" stroke-linejoin="round"/>
<path id="Vector_2" d="M21.85 18.4699L20.2 18.8599C19.83 18.9499 19.54 19.2299 19.46 19.5999L19.11 21.0699C18.92 21.8699 17.9 22.1099 17.37 21.4799L12.6 15.9999L7.82996 21.4899C7.29996 22.1199 6.27996 21.8799 6.08996 21.0799L5.73996 19.6099C5.64996 19.2399 5.35996 18.9499 4.99996 18.8699L3.34996 18.4799C2.58996 18.2999 2.31996 17.3499 2.86996 16.7999L6.76996 12.8999C7.84996 14.4999 9.55996 15.6299 11.55 15.9199C11.89 15.9799 12.24 16.0099 12.6 16.0099C12.96 16.0099 13.31 15.9799 13.65 15.9199C15.64 15.6299 17.35 14.4999 18.43 12.8999L22.33 16.7999C22.88 17.3399 22.61 18.2899 21.85 18.4699Z" stroke="#292D32" stroke-width="1.5" stroke-linecap="round" stroke-linejoin="round"/>
<path id="Vector_3" d="M13.18 5.98L13.77 7.15999C13.85 7.31999 14.06 7.48 14.25 7.51L15.32 7.68999C16 7.79999 16.16 8.3 15.67 8.79L14.84 9.61998C14.7 9.75998 14.62 10.03 14.67 10.23L14.91 11.26C15.1 12.07 14.67 12.39 13.95 11.96L12.95 11.37C12.77 11.26 12.47 11.26 12.29 11.37L11.29 11.96C10.57 12.38 10.14 12.07 10.33 11.26L10.57 10.23C10.61 10.04 10.54 9.75998 10.4 9.61998L9.56998 8.79C9.07998 8.3 9.23998 7.80999 9.91998 7.68999L10.99 7.51C11.17 7.48 11.38 7.31999 11.46 7.15999L12.05 5.98C12.34 5.34 12.86 5.34 13.18 5.98Z" stroke="#292D32" stroke-width="1.5" stroke-linecap="round" stroke-linejoin="round"/>
</g>
</g>
</svg>
