<svg width="20" height="21" viewBox="0 0 20 21" fill="none" xmlns="http://www.w3.org/2000/svg">
<g id="vuesax/linear/message-text">
<g id="message-text">
<path id="Vector" d="M7.08268 16.1482H6.66602C3.33268 16.1482 1.66602 15.3149 1.66602 11.1482V6.98157C1.66602 3.64823 3.33268 1.98157 6.66602 1.98157H13.3327C16.666 1.98157 18.3327 3.64823 18.3327 6.98157V11.1482C18.3327 14.4816 16.666 16.1482 13.3327 16.1482H12.916C12.6577 16.1482 12.4077 16.2732 12.2493 16.4816L10.9993 18.1482C10.4493 18.8816 9.54935 18.8816 8.99935 18.1482L7.74935 16.4816C7.61602 16.2982 7.30768 16.1482 7.08268 16.1482Z" stroke="#4356FF" stroke-width="1.5" stroke-miterlimit="10" stroke-linecap="round" stroke-linejoin="round"/>
<path id="Vector_2" d="M5.83398 6.98157H14.1673" stroke="#4356FF" stroke-width="1.5" stroke-linecap="round" stroke-linejoin="round"/>
<path id="Vector_3" d="M5.83398 11.1483H10.834" stroke="#4356FF" stroke-width="1.5" stroke-linecap="round" stroke-linejoin="round"/>
</g>
</g>
</svg>
