<svg width="92" height="91" viewBox="0 0 92 91" fill="none" xmlns="http://www.w3.org/2000/svg">
<circle cx="46.166" cy="45.4893" r="45.4893" fill="#81E052"/>
<path d="M49.2994 32.1559H43.0327C41.646 32.1559 40.5127 33.2759 40.5127 34.6626V35.9159C40.5127 37.3026 41.6327 38.4226 43.0194 38.4226H49.2994C50.686 38.4226 51.806 37.3026 51.806 35.9159V34.6626C51.8194 33.2759 50.686 32.1559 49.2994 32.1559Z" fill="white"/>
<path d="M53.1527 35.9159C53.1527 38.0359 51.4194 39.7693 49.2994 39.7693H43.0327C40.9127 39.7693 39.1794 38.0359 39.1794 35.9159C39.1794 35.1693 38.3794 34.7026 37.7127 35.0493C35.8327 36.0493 34.5527 38.0359 34.5527 40.3159V52.8626C34.5527 56.1426 37.2327 58.8226 40.5127 58.8226H51.8194C55.0994 58.8226 57.7794 56.1426 57.7794 52.8626V40.3159C57.7794 38.0359 56.4994 36.0493 54.6194 35.0493C53.9527 34.7026 53.1527 35.1693 53.1527 35.9159ZM50.6194 46.4626L45.2861 51.7959C45.0861 51.9959 44.8327 52.0893 44.5794 52.0893C44.3261 52.0893 44.0727 51.9959 43.8727 51.7959L41.8727 49.7959C41.4861 49.4093 41.4861 48.7693 41.8727 48.3826C42.2594 47.9959 42.8994 47.9959 43.2861 48.3826L44.5794 49.6759L49.2061 45.0493C49.5927 44.6626 50.2327 44.6626 50.6194 45.0493C51.0061 45.4359 51.0061 46.0759 50.6194 46.4626Z" fill="white"/>
</svg>
