<svg width="18" height="19" viewBox="0 0 18 19" fill="none" xmlns="http://www.w3.org/2000/svg">
<g id="vuesax/linear/trash">
<g id="trash">
<path id="Vector" d="M15.5673 5.31799C13.1373 5.07718 10.6927 4.95312 8.25537 4.95312C6.81051 4.95312 5.36564 5.0261 3.92078 5.17204L2.43213 5.31799" stroke="#4356FF" stroke-width="1.5" stroke-linecap="round" stroke-linejoin="round"/>
<path id="Vector_2" d="M6.4458 4.58087L6.60634 3.62493C6.7231 2.93168 6.81067 2.41357 8.04391 2.41357H9.9558C11.189 2.41357 11.2839 2.96087 11.3934 3.63222L11.5539 4.58087" stroke="#4356FF" stroke-width="1.5" stroke-linecap="round" stroke-linejoin="round"/>
<path id="Vector_3" d="M13.9988 7.62402L13.5244 14.9724C13.4442 16.1181 13.3785 17.0083 11.3425 17.0083H6.65768C4.62174 17.0083 4.55606 16.1181 4.47579 14.9724L4.00146 7.62402" stroke="#4356FF" stroke-width="1.5" stroke-linecap="round" stroke-linejoin="round"/>
<path id="Vector_4" d="M7.78125 12.9946H10.2113" stroke="#4356FF" stroke-width="1.5" stroke-linecap="round" stroke-linejoin="round"/>
<path id="Vector_5" d="M7.17578 10.0757H10.8244" stroke="#4356FF" stroke-width="1.5" stroke-linecap="round" stroke-linejoin="round"/>
</g>
</g>
</svg>
