<svg width="92" height="91" viewBox="0 0 92 91" fill="none" xmlns="http://www.w3.org/2000/svg">
<circle cx="45.833" cy="45.4893" r="45.4893" fill="#828EFF"/>
<path d="M59.1663 35.9559V51.8093C59.1663 53.1026 58.113 54.2893 56.8197 54.4493L56.4063 54.5026C54.2197 54.7959 51.1397 55.7026 48.6597 56.7426C47.793 57.1026 46.833 56.4493 46.833 55.5026V36.9559C46.833 36.4626 47.113 36.0093 47.553 35.7693C49.993 34.4493 53.6863 33.2759 56.193 33.0626H56.273C57.873 33.0626 59.1663 34.3559 59.1663 35.9559Z" fill="white"/>
<path d="M44.113 35.7693C41.673 34.4493 37.9797 33.2759 35.473 33.0626H35.3797C33.7797 33.0626 32.4863 34.3559 32.4863 35.9559V51.8093C32.4863 53.1026 33.5397 54.2893 34.833 54.4493L35.2463 54.5026C37.433 54.7959 40.513 55.7026 42.993 56.7426C43.8597 57.1026 44.8197 56.4493 44.8197 55.5026V36.9559C44.8197 36.4493 44.553 36.0093 44.113 35.7693ZM36.4997 39.8093H39.4997C40.0463 39.8093 40.4997 40.2626 40.4997 40.8093C40.4997 41.3693 40.0463 41.8093 39.4997 41.8093H36.4997C35.953 41.8093 35.4997 41.3693 35.4997 40.8093C35.4997 40.2626 35.953 39.8093 36.4997 39.8093ZM40.4997 45.8093H36.4997C35.953 45.8093 35.4997 45.3693 35.4997 44.8093C35.4997 44.2626 35.953 43.8093 36.4997 43.8093H40.4997C41.0463 43.8093 41.4997 44.2626 41.4997 44.8093C41.4997 45.3693 41.0463 45.8093 40.4997 45.8093Z" fill="white"/>
</svg>
