<svg width="25" height="24" viewBox="0 0 25 24" fill="none" xmlns="http://www.w3.org/2000/svg">
<g id="vuesax/linear/message-question">
<g id="message-question">
<path id="Vector" d="M17.2 18.43H13.2L8.74994 21.39C8.08994 21.83 7.19995 21.36 7.19995 20.56V18.43C4.19995 18.43 2.19995 16.43 2.19995 13.43V7.42993C2.19995 4.42993 4.19995 2.42993 7.19995 2.42993H17.2C20.2 2.42993 22.2 4.42993 22.2 7.42993V13.43C22.2 16.43 20.2 18.43 17.2 18.43Z" stroke="#292D32" stroke-width="1.5" stroke-miterlimit="10" stroke-linecap="round" stroke-linejoin="round"/>
<path id="Vector_2" d="M12.2 11.3599V11.1499C12.2 10.4699 12.62 10.1099 13.04 9.81989C13.45 9.53989 13.8599 9.1799 13.8599 8.5199C13.8599 7.5999 13.12 6.85986 12.2 6.85986C11.28 6.85986 10.54 7.5999 10.54 8.5199" stroke="#292D32" stroke-width="1.5" stroke-linecap="round" stroke-linejoin="round"/>
<path id="Vector_3" d="M12.1955 13.75H12.2045" stroke="#292D32" stroke-width="1.5" stroke-linecap="round" stroke-linejoin="round"/>
</g>
</g>
</svg>
