<svg width="20" height="20" viewBox="0 0 20 20" fill="none" xmlns="http://www.w3.org/2000/svg">
<g id="IG" clip-path="url(#clip0_748_10173)">
<path id="Vector" d="M6.68505 9.68603C6.68196 7.9329 8.10088 6.50874 9.85367 6.50569C11.6068 6.50226 13.0312 7.92055 13.0346 9.67401C13.038 11.4275 11.6191 12.8513 9.86569 12.8547C8.11289 12.8581 6.68843 11.4395 6.68505 9.68603ZM4.96961 9.68945C4.97485 12.3906 7.16863 14.5755 9.86911 14.5702C12.5699 14.565 14.756 12.3718 14.7507 9.67063C14.7455 6.97041 12.5514 4.78429 9.85028 4.78958C7.14977 4.79482 4.96436 6.9889 4.96961 9.68945ZM13.791 4.58897C13.7922 5.21974 14.3051 5.73049 14.9359 5.72926C15.5669 5.72799 16.0777 5.21542 16.0767 4.58465C16.0755 3.95388 15.5626 3.44284 14.9316 3.4441C14.3005 3.44533 13.7898 3.9582 13.791 4.58897ZM6.02652 17.4395C5.09796 17.3991 4.59373 17.2448 4.25769 17.1155C3.81268 16.9433 3.49514 16.7369 3.16093 16.4051C2.82735 16.0721 2.62027 15.7555 2.44652 15.3114C2.31601 14.9754 2.15893 14.4718 2.1154 13.5432C2.06819 12.5393 2.0574 12.2381 2.05278 9.695C2.04784 7.15249 2.0571 6.85128 2.10093 5.84649C2.1407 4.91857 2.29595 4.41366 2.42494 4.07792C2.59713 3.63232 2.80298 3.31537 3.13533 2.9812C3.46828 2.64699 3.78489 2.44054 4.22927 2.26679C4.56504 2.13561 5.06865 1.97976 5.99691 1.93567C7.00136 1.88812 7.30224 1.87796 9.84474 1.87302C12.3878 1.86807 12.689 1.87703 13.6938 1.92116C14.6217 1.96156 15.1266 2.11526 15.462 2.24518C15.9073 2.41736 16.2248 2.62262 16.5588 2.95556C16.8926 3.28855 17.0997 3.60453 17.2735 4.04987C17.4046 4.38468 17.5605 4.88891 17.6043 5.81688C17.6521 6.82133 17.6629 7.12254 17.6675 9.66505C17.6724 12.2082 17.6632 12.5094 17.6191 13.5136C17.5787 14.4421 17.4247 14.9467 17.2951 15.283C17.1229 15.7278 16.917 16.0453 16.5844 16.3795C16.2517 16.7125 15.9351 16.9201 15.4904 17.0939C15.1552 17.2247 14.651 17.3809 13.7234 17.425C12.719 17.4722 12.418 17.483 9.87465 17.4877C7.33215 17.4926 7.03131 17.483 6.02652 17.4395ZM5.91543 0.221717C4.902 0.269562 4.20985 0.431849 3.60497 0.668881C2.97885 0.912982 2.44809 1.24009 1.92011 1.77026C1.39147 2.30072 1.06682 2.83242 0.824578 3.45917C0.590076 4.06557 0.431137 4.75806 0.38638 5.77212C0.341957 6.78803 0.331763 7.11205 0.336711 9.69838C0.34166 12.2844 0.353044 12.6091 0.401485 13.6253C0.449926 14.6384 0.611655 15.3303 0.84865 15.9354C1.09305 16.5616 1.41986 17.0921 1.95032 17.6204C2.48049 18.1487 3.01252 18.473 3.63957 18.7156C4.24534 18.9498 4.93809 19.1093 5.95185 19.1538C6.96773 19.1985 7.29204 19.2084 9.87774 19.2035C12.4647 19.1985 12.789 19.1871 13.8049 19.139C14.8183 19.0905 15.5098 18.9282 16.1153 18.6918C16.7414 18.4468 17.2722 18.1206 17.8002 17.5901C18.3282 17.0599 18.6529 16.5279 18.8951 15.9009C19.1297 15.2951 19.2892 14.6023 19.3333 13.5892C19.3777 12.5726 19.3883 12.248 19.3833 9.66196C19.3783 7.07563 19.3666 6.75161 19.3185 5.73603C19.2704 4.72198 19.108 4.03041 18.8713 3.42494C18.6266 2.79882 18.3002 2.26861 17.77 1.74001C17.2398 1.212 16.7078 0.886716 16.0808 0.645108C15.4747 0.410568 14.7822 0.250736 13.7685 0.206909C12.7526 0.161854 12.4282 0.151995 9.84161 0.156906C7.25562 0.161854 6.9313 0.172941 5.91543 0.221717Z" fill="#969696"/>
</g>
<defs>
<clipPath id="clip0_748_10173">
<rect width="19.0489" height="19.0489" fill="white" transform="translate(0.335449 0.155762)"/>
</clipPath>
</defs>
</svg>
