<svg width="38" height="38" viewBox="0 0 38 38" fill="none" xmlns="http://www.w3.org/2000/svg">
<g id="vuesax/linear/gallery-import">
<g id="gallery-import">
<path id="Vector" d="M14.2155 15.9613C15.9099 15.9613 17.2835 14.5877 17.2835 12.8932C17.2835 11.1988 15.9099 9.8252 14.2155 9.8252C12.5211 9.8252 11.1475 11.1988 11.1475 12.8932C11.1475 14.5877 12.5211 15.9613 14.2155 15.9613Z" stroke="#727272" stroke-width="2.30103" stroke-linecap="round" stroke-linejoin="round"/>
<path id="Vector_2" d="M20.3517 3.68945H14.2157C6.54557 3.68945 3.47754 6.75749 3.47754 14.4276V23.6317C3.47754 31.3018 6.54557 34.3698 14.2157 34.3698H23.4198C31.0898 34.3698 34.1579 31.3018 34.1579 23.6317V15.9616" stroke="#727272" stroke-width="2.30103" stroke-linecap="round" stroke-linejoin="round"/>
<path id="Vector_3" d="M28.0225 3.68945V12.8936L31.0905 9.82552" stroke="#727272" stroke-width="2.30103" stroke-linecap="round" stroke-linejoin="round"/>
<path id="Vector_4" d="M28.0212 12.8932L24.9531 9.8252" stroke="#727272" stroke-width="2.30103" stroke-linecap="round" stroke-linejoin="round"/>
<path id="Vector_5" d="M4.50488 29.6906L12.0676 24.613C13.2795 23.8 15.0282 23.8921 16.1174 24.8278L16.6236 25.2727C17.8201 26.3005 19.753 26.3005 20.9495 25.2727L27.3311 19.7962C28.5276 18.7684 30.4605 18.7684 31.657 19.7962L34.1574 21.9439" stroke="#727272" stroke-width="2.30103" stroke-linecap="round" stroke-linejoin="round"/>
</g>
</g>
</svg>
