<svg width="20" height="20" viewBox="0 0 20 20" fill="none" xmlns="http://www.w3.org/2000/svg">
<g id="IN" clip-path="url(#clip0_748_10177)">
<path id="Vector" d="M4.90369 2.93396C4.90369 4.03007 4.02268 4.91822 2.93531 4.91822C1.84793 4.91822 0.966924 4.03007 0.966924 2.93396C0.966924 1.83865 1.84793 0.949707 2.93531 0.949707C4.02268 0.949707 4.90369 1.83865 4.90369 2.93396ZM4.91956 6.50563H0.95105V19.2049H4.91956V6.50563ZM11.2549 6.50563H7.31178V19.2049H11.2557V12.5386C11.2557 8.83197 16.0409 8.52878 16.0409 12.5386V19.2049H19.9999V11.1639C19.9999 4.90949 12.9185 5.13728 11.2549 8.21606V6.50563Z" fill="#969696"/>
</g>
<defs>
<clipPath id="clip0_748_10177">
<rect width="19.0489" height="19.0489" fill="white" transform="translate(0.95105 0.155762)"/>
</clipPath>
</defs>
</svg>
