<svg width="72" height="12" viewBox="0 0 72 12" fill="none" xmlns="http://www.w3.org/2000/svg">
<path d="M6.82364 0L8.98313 3.68183L13.1766 4.58359L10.3178 7.76085L10.75 12L6.82364 10.2818L2.89731 12L3.32953 7.76085L0.470703 4.58359L4.66416 3.68183L6.82364 0Z" fill="#FFCB45"/>
<path d="M21.5287 0L23.6882 3.68183L27.8817 4.58359L25.0228 7.76085L25.4551 12L21.5287 10.2818L17.6024 12L18.0346 7.76085L15.1758 4.58359L19.3692 3.68183L21.5287 0Z" fill="#FFCB45"/>
<path d="M36.2358 0L38.3952 3.68183L42.5887 4.58359L39.7299 7.76085L40.1621 12L36.2358 10.2818L32.3094 12L32.7416 7.76085L29.8828 4.58359L34.0763 3.68183L36.2358 0Z" fill="#FFCB45"/>
<path d="M50.9408 0L53.1003 3.68183L57.2938 4.58359L54.4349 7.76085L54.8672 12L50.9408 10.2818L47.0145 12L47.4467 7.76085L44.5879 4.58359L48.7813 3.68183L50.9408 0Z" fill="#FFCB45"/>
<path d="M65.6479 0L67.8073 3.68183L72.0008 4.58359L69.142 7.76085L69.5742 12L65.6479 10.2818L61.7215 12L62.1537 7.76085L59.2949 4.58359L63.4884 3.68183L65.6479 0Z" fill="#F2F2F2"/>
<path d="M61.7215 12L65.6479 10.2818V0L63.4884 3.68183L59.2949 4.58359L62.1537 7.76085L61.7215 12Z" fill="#FFCB45"/>
</svg>
