<svg width="24" height="25" viewBox="0 0 24 25" fill="none" xmlns="http://www.w3.org/2000/svg">
<g id="vuesax/bold/send">
<g id="send">
<path id="Vector" d="M18.07 8.69568L9.51 4.41568C3.76 1.53568 1.4 3.89568 4.28 9.64568L5.15 11.3857C5.4 11.8957 5.4 12.4857 5.15 12.9957L4.28 14.7257C1.4 20.4757 3.75 22.8357 9.51 19.9557L18.07 15.6757C21.91 13.7557 21.91 10.6157 18.07 8.69568ZM14.84 12.9357H9.44C9.03 12.9357 8.69 12.5957 8.69 12.1857C8.69 11.7757 9.03 11.4357 9.44 11.4357H14.84C15.25 11.4357 15.59 11.7757 15.59 12.1857C15.59 12.5957 15.25 12.9357 14.84 12.9357Z" fill="white"/>
</g>
</g>
</svg>
