<svg width="21" height="21" viewBox="0 0 21 21" fill="none" xmlns="http://www.w3.org/2000/svg">
<g id="vuesax/bold/book">
<path id="Vector" d="M16.868 15.8148L16.8654 15.8151L16.6071 15.8484L16.6046 15.8488C15.1836 16.0394 13.2156 16.6209 11.6368 17.2829C11.4337 17.3666 11.1877 17.2141 11.1877 16.9693V5.37767C11.1877 5.26159 11.2544 5.14217 11.3766 5.07529C12.8432 4.28207 15.0709 3.57579 16.5594 3.44434H16.5877C17.3116 3.44434 17.8961 4.02881 17.8961 4.75267V14.661C17.8961 15.2146 17.4281 15.7455 16.868 15.8148Z" fill="#4356FF" stroke="#4356FF"/>
<path id="Vector_2" d="M3.25185 15.8151L3.25185 15.8151L3.24925 15.8148C2.68913 15.7455 2.22119 15.2146 2.22119 14.661V4.75267C2.22119 4.02881 2.80567 3.44434 3.52952 3.44434H3.56623C5.05469 3.57579 7.28242 4.28207 8.74905 5.07529C8.86541 5.13902 8.92952 5.2469 8.92952 5.37767V16.9693C8.92952 17.2141 8.6834 17.3667 8.48023 17.2828C6.90146 16.6209 4.93364 16.0394 3.51267 15.8488L3.51018 15.8484L3.25185 15.8151ZM6.10453 6.661H4.22952C3.61172 6.661 3.10452 7.16819 3.10452 7.786C3.10452 8.41648 3.61607 8.911 4.22952 8.911H6.10453C6.71798 8.911 7.22953 8.41648 7.22953 7.786C7.22953 7.16819 6.72233 6.661 6.10453 6.661ZM4.22952 11.411H6.72953C7.34298 11.411 7.85453 10.9165 7.85453 10.286C7.85453 9.66819 7.34733 9.161 6.72953 9.161H4.22952C3.61172 9.161 3.10452 9.66819 3.10452 10.286C3.10452 10.9165 3.61607 11.411 4.22952 11.411Z" fill="#4356FF" stroke="#4356FF"/>
</g>
</svg>
