<svg width="22" height="22" viewBox="0 0 22 22" fill="none" xmlns="http://www.w3.org/2000/svg">
<g id="vuesax/linear/video-play">
<g id="video-play">
<path id="Vector" d="M20.1673 13.7499V8.24992C20.1673 3.66659 18.334 1.83325 13.7507 1.83325H8.25065C3.66732 1.83325 1.83398 3.66659 1.83398 8.24992V13.7499C1.83398 18.3333 3.66732 20.1666 8.25065 20.1666H13.7507C18.334 20.1666 20.1673 18.3333 20.1673 13.7499Z" stroke="#2C2C2C" stroke-width="1.5" stroke-linecap="round" stroke-linejoin="round"/>
<path id="Vector_2" d="M2.31055 6.51746H19.6905" stroke="#2C2C2C" stroke-width="1.5" stroke-linecap="round" stroke-linejoin="round"/>
<path id="Vector_3" d="M7.81055 1.9342V6.3892" stroke="#2C2C2C" stroke-width="1.5" stroke-linecap="round" stroke-linejoin="round"/>
<path id="Vector_4" d="M14.1895 1.9342V5.9767" stroke="#2C2C2C" stroke-width="1.5" stroke-linecap="round" stroke-linejoin="round"/>
<path id="Vector_5" d="M8.9375 13.2457V12.1457C8.9375 10.7341 9.93667 10.1566 11.1558 10.8624L12.1092 11.4124L13.0625 11.9624C14.2817 12.6682 14.2817 13.8232 13.0625 14.5291L12.1092 15.0791L11.1558 15.6291C9.93667 16.3349 8.9375 15.7574 8.9375 14.3457V13.2457V13.2457Z" stroke="#2C2C2C" stroke-width="1.5" stroke-miterlimit="10" stroke-linecap="round" stroke-linejoin="round"/>
</g>
</g>
</svg>
