<svg width="21" height="21" viewBox="0 0 21 21" fill="none" xmlns="http://www.w3.org/2000/svg">
<g id="vuesax/bold/video-play">
<g id="video-play">
<path id="Vector" d="M8.35059 2.37744H11.9006V5.01078H8.35059V2.37744Z" fill="#4356FF" stroke="#4356FF"/>
<path id="Vector_2" d="M17.711 5.01078H14.1504V2.39776C15.1227 2.47523 15.9086 2.77081 16.503 3.23267C17.0558 3.66229 17.4692 4.25589 17.711 5.01078Z" fill="#4356FF" stroke="#4356FF"/>
<path id="Vector_3" d="M1.79224 6.76074V13.7024C1.79224 16.7357 3.60057 18.5441 6.6339 18.5441H13.6172C16.6506 18.5441 18.4589 16.7357 18.4589 13.7024V6.76074H1.79224ZM12.1589 13.6941L10.4256 14.6941C10.0589 14.9024 9.70057 15.0107 9.36724 15.0107C9.11724 15.0107 8.89224 14.9524 8.6839 14.8357C8.20057 14.5607 7.9339 13.9941 7.9339 13.2607V11.2607C7.9339 10.5274 8.20057 9.96074 8.6839 9.68574C9.16724 9.40241 9.7839 9.45241 10.4256 9.82741L12.1589 10.8274C12.8006 11.1941 13.1506 11.7107 13.1506 12.2691C13.1506 12.8274 12.7922 13.3191 12.1589 13.6941Z" fill="#4356FF"/>
<path id="Vector_4" d="M6.60039 1.87744C4.01706 1.88577 2.32539 3.21911 1.90039 5.51078H6.60039V1.87744Z" fill="#4356FF"/>
</g>
</g>
</svg>
