<svg width="25" height="24" viewBox="0 0 25 24" fill="none" xmlns="http://www.w3.org/2000/svg">
<g id="vuesax/linear/wallet">
<g id="wallet">
<path id="Vector" d="M13.4601 2.51814L13.4301 2.58814L10.5301 9.31814H7.68007C7.00007 9.31814 6.35007 9.45814 5.76007 9.70814L7.51007 5.52814L7.55007 5.42814L7.62007 5.26814C7.64007 5.20814 7.66007 5.14814 7.69007 5.09814C9.00007 2.06814 10.4801 1.37814 13.4601 2.51814Z" stroke="#292D32" stroke-width="1.5" stroke-linecap="round" stroke-linejoin="round"/>
<path id="Vector_2" d="M18.85 9.51807C18.4 9.37807 17.92 9.31807 17.44 9.31807H10.53L13.43 2.58807L13.46 2.51807C13.61 2.56807 13.75 2.63807 13.9 2.69807L16.11 3.62807C17.34 4.13807 18.2 4.66807 18.72 5.30807C18.82 5.42807 18.9 5.53807 18.97 5.66807C19.06 5.80807 19.13 5.94807 19.17 6.09807C19.21 6.18807 19.24 6.27807 19.26 6.35807C19.53 7.19807 19.37 8.22807 18.85 9.51807Z" stroke="#292D32" stroke-width="1.5" stroke-linecap="round" stroke-linejoin="round"/>
<path id="Vector_3" d="M22.3218 14.1984V16.1484C22.3218 16.3484 22.3118 16.5484 22.3018 16.7484C22.1118 20.2384 20.1618 21.9984 16.4618 21.9984H8.66177C8.42177 21.9984 8.18177 21.9784 7.95177 21.9484C4.77177 21.7384 3.07177 20.0384 2.86177 16.8584C2.83177 16.6284 2.81177 16.3884 2.81177 16.1484V14.1984C2.81177 12.1884 4.03177 10.4584 5.77177 9.70836C6.37177 9.45836 7.01177 9.31836 7.69177 9.31836H17.4518C17.9418 9.31836 18.4218 9.38836 18.8618 9.51836C20.8518 10.1284 22.3218 11.9884 22.3218 14.1984Z" stroke="#292D32" stroke-width="1.5" stroke-linecap="round" stroke-linejoin="round"/>
<path id="Vector_4" d="M7.51005 5.52808L5.76005 9.70808C4.02005 10.4581 2.80005 12.1881 2.80005 14.1981V11.2681C2.80005 8.42808 4.82005 6.05808 7.51005 5.52808Z" stroke="#292D32" stroke-width="1.5" stroke-linecap="round" stroke-linejoin="round"/>
<path id="Vector_5" d="M22.3186 11.2677V14.1977C22.3186 11.9977 20.8586 10.1277 18.8586 9.52766C19.3786 8.22766 19.5286 7.20766 19.2786 6.35766C19.2586 6.26766 19.2286 6.17766 19.1886 6.09766C21.0486 7.05766 22.3186 9.02766 22.3186 11.2677Z" stroke="#292D32" stroke-width="1.5" stroke-linecap="round" stroke-linejoin="round"/>
</g>
</g>
</svg>
