<svg width="543" height="183" viewBox="0 0 543 183" fill="none" xmlns="http://www.w3.org/2000/svg">
<g filter="url(#filter0_d_623_1249)">
<circle cx="483.369" cy="91.4999" r="400.701" fill="#6272FF"/>
<circle cx="483.369" cy="91.4999" r="400.201" stroke="#C0C7FF"/>
</g>
<circle cx="483.369" cy="91.4997" r="290.594" fill="#828EFF" stroke="#C0C7FF"/>
<circle cx="483.371" cy="91.5002" r="184.698" fill="#A1ABFF" stroke="#C0C7FF"/>
<circle cx="483.371" cy="91.5004" r="105.929" fill="#C0C7FF" stroke="#C0C7FF"/>
<path d="M503.144 69.3366V71.8559L491.092 64.8767C486.53 62.2552 480.164 62.2552 475.636 64.8767L463.584 71.89V69.3366C463.584 61.6764 467.772 57.4548 475.432 57.4548H491.297C498.957 57.4548 503.144 61.6764 503.144 69.3366Z" fill="white"/>
<path d="M503.258 77.7808L502.781 77.5424L498.151 74.8869L488.55 69.3376C485.622 67.6353 481.128 67.6353 478.2 69.3376L468.6 74.8529L463.969 77.5765L463.357 77.8829C457.399 81.9002 456.99 82.6492 456.99 89.0838V104.472C456.99 110.907 457.399 111.656 463.493 115.775L478.2 124.252C479.664 125.138 481.503 125.512 483.375 125.512C485.214 125.512 487.086 125.104 488.55 124.252L503.394 115.673C509.386 111.656 509.76 110.941 509.76 104.472V89.0838C509.76 82.6492 509.352 81.9002 503.258 77.7808ZM492.874 96.6077L490.797 99.1611C490.457 99.5356 490.218 100.251 490.252 100.761L490.457 104.03C490.593 106.038 489.163 107.06 487.29 106.345L484.26 105.119C483.784 104.949 483.001 104.949 482.524 105.119L479.494 106.311C477.622 107.06 476.192 106.004 476.328 103.996L476.532 100.727C476.566 100.217 476.328 99.5016 475.987 99.1271L473.877 96.6077C472.583 95.0757 473.162 93.3734 475.102 92.8628L478.268 92.0457C478.779 91.9095 479.358 91.4329 479.63 91.0243L481.401 88.3007C482.49 86.5985 484.226 86.5985 485.35 88.3007L487.12 91.0243C487.393 91.4669 488.005 91.9095 488.482 92.0457L491.648 92.8628C493.589 93.3734 494.168 95.0757 492.874 96.6077Z" fill="white"/>
<defs>
<filter id="filter0_d_623_1249" x="0.959591" y="-390.909" width="964.818" height="964.818" filterUnits="userSpaceOnUse" color-interpolation-filters="sRGB">
<feFlood flood-opacity="0" result="BackgroundImageFix"/>
<feColorMatrix in="SourceAlpha" type="matrix" values="0 0 0 0 0 0 0 0 0 0 0 0 0 0 0 0 0 0 127 0" result="hardAlpha"/>
<feMorphology radius="33.125" operator="erode" in="SourceAlpha" result="effect1_dropShadow_623_1249"/>
<feOffset/>
<feGaussianBlur stdDeviation="57.4167"/>
<feComposite in2="hardAlpha" operator="out"/>
<feColorMatrix type="matrix" values="0 0 0 0 0.165625 0 0 0 0 0.238159 0 0 0 0 0.883333 0 0 0 1 0"/>
<feBlend mode="normal" in2="BackgroundImageFix" result="effect1_dropShadow_623_1249"/>
<feBlend mode="normal" in="SourceGraphic" in2="effect1_dropShadow_623_1249" result="shape"/>
</filter>
</defs>
</svg>
