<svg width="87" height="25" viewBox="0 0 87 25" fill="none" xmlns="http://www.w3.org/2000/svg">
<path d="M0.394125 24V1.6H16.0101V5.504H4.45812V10.624H15.2101V14.528H4.45812V20.096H16.1701V24H0.394125ZM28.3654 9.248V0.799999L32.3014 0.768V23.968L28.3654 24V22.848C28.3654 21.888 28.9094 20.768 29.2294 19.84L28.5254 19.616C28.2374 20.544 28.0774 21.856 27.4054 22.528C26.2214 23.776 24.5894 24.512 22.4454 24.512C17.6454 24.512 14.3494 20.8 14.4454 16.064C14.5414 11.456 17.8054 7.52 22.4134 7.52C24.5574 7.52 26.2214 8.352 27.3734 9.6C28.0454 10.272 28.2374 11.584 28.5574 12.48L29.2294 12.256C28.9094 11.328 28.3654 10.208 28.3654 9.248ZM22.9574 20.832C25.9654 20.832 27.6614 18.816 27.6614 16.128C27.6614 13.408 25.9654 11.168 22.9574 11.168C19.9494 11.168 18.3494 13.408 18.3494 16.128C18.3494 18.816 19.9494 20.832 22.9574 20.832ZM33.0254 18.624V11.424H29.8254V8H33.0254V1.952H36.9294V8H41.0894V11.424H36.9294V18.624C36.9294 19.968 37.5374 20.352 39.0414 20.352H40.9294V24H37.0574C34.0494 24 33.0254 21.184 33.0254 18.624ZM52.5696 23.008C51.2576 24.288 50.0416 24.48 47.8336 24.48C44.6976 24.48 41.6576 22.592 41.6576 18.976V8H45.5936V16.448C45.5936 19.776 47.0976 21.024 49.2416 21.024C51.5776 21.024 53.4976 19.616 53.4976 16.448V8H57.4016V24H53.4976V23.36C53.5296 22.496 54.1056 21.504 54.3936 20.672L53.7216 20.416C53.4336 21.248 53.2096 22.4 52.5696 23.008ZM63.4021 9.12C65.0981 7.808 66.8581 7.52 69.9941 7.52V11.168C66.0261 11.168 61.8981 12.576 61.8981 17.024V24H57.9941V8H61.8981V8.48C61.8981 9.696 61.2261 11.168 60.7461 12.288L61.4181 12.576C61.8981 11.456 62.4101 9.856 63.4021 9.12ZM78.6619 24.512C72.1659 24.512 68.6779 20.672 68.6779 15.904C68.6779 11.136 72.4859 7.52 77.8939 7.52C83.4619 7.52 86.9179 11.424 86.8859 15.84C86.8859 16.16 86.8859 16.928 86.8539 17.216L73.3819 17.184C73.3819 18.944 74.9819 21.152 78.2779 21.152C80.4219 21.152 81.7339 20.224 82.0539 19.424H86.5339C86.0539 21.088 83.6859 24.512 78.6619 24.512ZM73.3819 14.56H82.3099C82.3099 12.352 80.6779 10.624 77.9899 10.624C75.2699 10.624 73.3819 12.544 73.3819 14.56Z" fill="#4356FF"/>
</svg>
