<svg width="49" height="48" viewBox="0 0 49 48" fill="none" xmlns="http://www.w3.org/2000/svg">
<path d="M12.5 20.0002V16.0002C12.5 9.38024 14.5 4.00024 24.5 4.00024C34.5 4.00024 36.5 9.38024 36.5 16.0002V20.0002" stroke="#6CBB44" stroke-width="3" stroke-linecap="round" stroke-linejoin="round"/>
<path d="M24.5 37.0002C27.2614 37.0002 29.5 34.7617 29.5 32.0002C29.5 29.2388 27.2614 27.0002 24.5 27.0002C21.7386 27.0002 19.5 29.2388 19.5 32.0002C19.5 34.7617 21.7386 37.0002 24.5 37.0002Z" stroke="#6CBB44" stroke-width="3" stroke-linecap="round" stroke-linejoin="round"/>
<path d="M34.5 44H14.5C6.5 44 4.5 42 4.5 34V30C4.5 22 6.5 20 14.5 20H34.5C42.5 20 44.5 22 44.5 30V34C44.5 42 42.5 44 34.5 44Z" stroke="#6CBB44" stroke-width="3" stroke-linecap="round" stroke-linejoin="round"/>
</svg>
