<svg width="49" height="48" viewBox="0 0 49 48" fill="none" xmlns="http://www.w3.org/2000/svg">
<path d="M40.0803 8.44014C34.1603 2.54014 24.5603 2.54014 18.6803 8.44014C14.5403 12.5401 13.3003 18.4401 14.9003 23.6401L5.50029 33.0401C4.84029 33.7201 4.38029 35.0601 4.52029 36.0201L5.12029 40.3801C5.34029 41.8201 6.68029 43.1801 8.12029 43.3801L12.4803 43.9801C13.4403 44.1201 14.7803 43.6801 15.4603 42.9801L17.1003 41.3401C17.5003 40.9601 17.5003 40.3201 17.1003 39.9201L13.2203 36.0401C12.6403 35.4601 12.6403 34.5001 13.2203 33.9201C13.8003 33.3401 14.7603 33.3401 15.3403 33.9201L19.2403 37.8201C19.6203 38.2001 20.2603 38.2001 20.6403 37.8201L24.8803 33.6001C30.0603 35.2201 35.9603 33.9601 40.0803 29.8601C45.9803 23.9601 45.9803 14.3401 40.0803 8.44014ZM29.5003 24.0001C26.7403 24.0001 24.5003 21.7601 24.5003 19.0001C24.5003 16.2401 26.7403 14.0001 29.5003 14.0001C32.2603 14.0001 34.5003 16.2401 34.5003 19.0001C34.5003 21.7601 32.2603 24.0001 29.5003 24.0001Z" fill="#D8D8D8"/>
</svg>
