<svg width="49" height="48" viewBox="0 0 49 48" fill="none" xmlns="http://www.w3.org/2000/svg">
<path d="M34.5 44H14.5C6.5 44 4.5 42 4.5 34V30C4.5 22 6.5 20 14.5 20H34.5C42.5 20 44.5 22 44.5 30V34C44.5 42 42.5 44 34.5 44Z" stroke="#D8D8D8" stroke-width="3" stroke-linecap="round" stroke-linejoin="round"/>
<path d="M12.5 20V16C12.5 9.38 14.5 4 24.5 4C33.5 4 36.5 8 36.5 14" stroke="#D8D8D8" stroke-width="3" stroke-linecap="round" stroke-linejoin="round"/>
<path d="M24.5 37C27.2614 37 29.5 34.7614 29.5 32C29.5 29.2386 27.2614 27 24.5 27C21.7386 27 19.5 29.2386 19.5 32C19.5 34.7614 21.7386 37 24.5 37Z" stroke="#D8D8D8" stroke-width="3" stroke-linecap="round" stroke-linejoin="round"/>
</svg>
